<?xml version="1.0" encoding="UTF-8"?>
<svg version="1.1" xmlns="http://www.w3.org/2000/svg" width="544" height="93">
<path d="M0 0 C179.52 0 359.04 0 544 0 C544 30.69 544 61.38 544 93 C364.48 93 184.96 93 0 93 C0 62.31 0 31.62 0 0 Z " fill="#FAFAFA" transform="translate(0,0)"/>
<path d="M0 0 C57.75 0 115.5 0 175 0 C171.53654714 1.73172643 169.20577448 2.44534893 165.5 3.1875 C154.52883941 5.87677229 145.42487408 11.63846654 139 21 C131.86991634 33.61897158 130.16859845 46.08443466 134.03125 60.05078125 C137.82722578 71.60707849 144.47706423 80.71414361 155.19140625 86.71484375 C160.28078846 89.04364312 165.60158421 90.56155065 171 92 C171 92.33 171 92.66 171 93 C114.57 93 58.14 93 0 93 C0 62.31 0 31.62 0 0 Z " fill="#FBFDFE" transform="translate(0,0)"/>
<path d="M0 0 C9.47722285 7.33720478 15.10689841 17.43739786 16.75390625 29.2890625 C17.97515949 42.74223306 15.8133155 53.81229632 8 65 C6.9171875 66.5778125 6.9171875 66.5778125 5.8125 68.1875 C-4.9908056 78.9908056 -17.69749511 82.35738253 -32.5 82.5 C-47.04357285 82.3597872 -58.03940411 79.26445397 -68.9609375 69.19140625 C-77.66645798 60.04870898 -81.81691098 48.57419612 -82.3125 36.125 C-81.98989131 23.28114144 -77.02890378 12.44870162 -68.35546875 3.140625 C-49.78700632 -13.73419657 -20.46030099 -12.9044222 0 0 Z " fill="#030303" transform="translate(213,10)"/>
<path d="M0 0 C11.55 0 23.1 0 35 0 C35.474375 5.0325 35.94875 10.065 36.4375 15.25 C36.58501709 16.81137695 36.73253418 18.37275391 36.88452148 19.98144531 C37.26104769 23.98721634 37.63147391 27.99348538 38 32 C38.10513916 33.11600586 38.21027832 34.23201172 38.31860352 35.38183594 C38.87161746 41.52338207 39.13065237 47.58483211 39.0625 53.75 C39.05798828 54.554375 39.05347656 55.35875 39.04882812 56.1875 C39.03729518 58.12503404 39.01937471 60.06252851 39 62 C39.66 62 40.32 62 41 62 C41.25402588 61.29109619 41.50805176 60.58219238 41.76977539 59.85180664 C43.11552872 56.73219071 44.76153681 54.17251096 46.68359375 51.37109375 C47.05135422 50.83201385 47.41911469 50.29293396 47.79801941 49.73751831 C49.00675672 47.96777331 50.2220901 46.20266751 51.4375 44.4375 C52.28157701 43.20435528 53.12515683 41.97087011 53.96826172 40.73706055 C55.73434178 38.15320539 57.50259771 35.57085756 59.27197266 32.98925781 C62.01098939 28.98877259 64.73225317 24.97642136 67.44921875 20.9609375 C67.88638718 20.3150618 68.3235556 19.6691861 68.77397156 19.0037384 C70.47898873 16.48447755 72.18377674 13.96506253 73.88766479 11.44503784 C75.06208775 9.70874324 76.23790686 7.97340243 77.4140625 6.23828125 C78.0838916 5.24868408 78.7537207 4.25908691 79.44384766 3.23950195 C81 1 81 1 82 0 C84.52094076 -0.08847743 87.01430893 -0.11527301 89.53515625 -0.09765625 C90.66503212 -0.09553383 90.66503212 -0.09553383 91.81773376 -0.09336853 C94.2326956 -0.08775376 96.64756601 -0.07519883 99.0625 -0.0625 C100.69596221 -0.0574869 102.32942586 -0.05292366 103.96289062 -0.04882812 C107.97529585 -0.03777954 111.98763241 -0.02050506 116 0 C115.34 2.31 114.68 4.62 114 7 C112.046875 7.29296875 110.09375 7.5859375 108.140625 7.87890625 C103.78929442 10.15779653 102.2017297 15.359378 100.79907227 19.8137207 C100.46071612 21.1817814 100.13359484 22.55265841 99.81640625 23.92578125 C99.5451442 25.03765808 99.5451442 25.03765808 99.2684021 26.17199707 C98.69002995 28.54993242 98.12615118 30.93103705 97.5625 33.3125 C96.77791302 36.56359154 95.98660989 39.8130362 95.1953125 43.0625 C94.90940498 44.24329887 94.90940498 44.24329887 94.61772156 45.44795227 C93.03421907 51.95559511 91.29571506 58.41106622 89.32055664 64.81176758 C88.08821548 68.96960358 87.66444716 72.66977048 88 77 C90.76223278 79.76223278 93.20706617 79.57856291 97 80 C96.34 82.64 95.68 85.28 95 88 C80.48 88 65.96 88 51 88 C52 82 52 82 53 80 C54.98932555 79.51871156 56.98145527 79.04226957 58.9921875 78.66015625 C61.42594641 77.85995147 62.33932545 76.93804813 64 75 C64.91438196 73.04955445 64.91438196 73.04955445 65.53686523 70.88085938 C65.78467743 70.08252686 66.03248962 69.28419434 66.28781128 68.46166992 C67.3975239 64.62596444 68.43058816 60.77714531 69.41015625 56.90625 C69.62312851 56.07468384 69.83610077 55.24311768 70.05552673 54.38635254 C70.50153044 52.64223894 70.94597634 50.89772629 71.38891602 49.15283203 C72.06100203 46.5058996 72.73809326 43.86028674 73.41601562 41.21484375 C73.8518566 39.50788756 74.287413 37.80085869 74.72265625 36.09375 C74.92166031 35.31535767 75.12066437 34.53696533 75.32569885 33.73498535 C76.64990651 28.51058738 77.85830879 23.26722956 79 18 C78.67443619 18.49572006 78.34887238 18.99144012 78.01344299 19.50218201 C50.30475261 61.68583523 50.30475261 61.68583523 39.75 77.1875 C39.06107666 78.1993335 38.37215332 79.21116699 37.66235352 80.25366211 C33.14882613 86.85117387 33.14882613 86.85117387 32 88 C30.14712498 88.07226502 28.29166122 88.0838122 26.4375 88.0625 C25.42558594 88.05347656 24.41367187 88.04445313 23.37109375 88.03515625 C22.58863281 88.02355469 21.80617187 88.01195313 21 88 C20.90937035 86.88365929 20.90937035 86.88365929 20.81690979 85.74476624 C20.24461739 78.69842653 19.67104051 71.6521928 19.09605503 64.60607243 C18.8005621 60.9844269 18.50554937 57.36274364 18.21166992 53.7409668 C17.92753825 50.23954828 17.64209836 46.73823856 17.35578728 43.2369976 C17.19484258 41.26476543 17.03521967 39.29242554 16.87562561 37.32008362 C16.3467022 30.86593995 15.75788958 24.43140837 15 18 C12.26502072 24.7471925 9.5628612 31.50687521 6.88232422 38.27587891 C5.96815008 40.57342358 5.04671076 42.86809212 4.11767578 45.15966797 C2.77761718 48.46879227 1.46469519 51.78764397 0.15625 55.109375 C-0.25935181 56.11925476 -0.67495361 57.12913452 -1.10314941 58.1696167 C-3.86547266 65.28692112 -4.50372747 71.39169528 -4 79 C-1.36 79.33 1.28 79.66 4 80 C3.34 82.64 2.68 85.28 2 88 C-7.57 88 -17.14 88 -27 88 C-26.34 85.36 -25.68 82.72 -25 80 C-23.02699884 78.94773272 -21.02323613 77.95211112 -19 77 C-13.97894645 71.07058493 -11.52938169 63.27435068 -8.8125 56.125 C-8.0989386 54.26991248 -7.38537161 52.41482707 -6.67141724 50.55989075 C-6.18325381 49.28952507 -5.69634279 48.01867745 -5.21066284 46.74736023 C-3.52333424 42.33418768 -1.78659208 37.94362061 -0.02734375 33.55859375 C0.8984687 31.22657489 1.82425116 28.89454412 2.75 26.5625 C3.19239014 25.47404785 3.63478027 24.3855957 4.09057617 23.26416016 C4.48865479 22.25015137 4.8867334 21.23614258 5.296875 20.19140625 C5.65104492 19.30654541 6.00521484 18.42168457 6.37011719 17.51000977 C7.1025533 14.59133704 6.90711725 12.85305936 6 10 C3.4345406 7.4345406 1.52313332 7.45953913 -2 7 C-1.34 4.69 -0.68 2.38 0 0 Z " fill="#4CC5F2" transform="translate(27,3)"/>
<path d="M0 0 C21.78 0 43.56 0 66 0 C66 30.69 66 61.38 66 93 C47.52 93 29.04 93 10 93 C10 92.67 10 92.34 10 92 C10.82242187 91.97421875 11.64484375 91.9484375 12.4921875 91.921875 C21.99373301 91.43911749 30.16953429 90.44184665 36.9375 83.25 C43.00578553 75.44996317 44.10589729 67.81162366 43 58 C38.50637182 47.64511767 27.14423058 42.17949471 17.375 37.875 C-0.70982589 29.83493 -0.70982589 29.83493 -4 22 C-4.49388216 17.35750767 -3.88944842 14.68653764 -1 11 C2.852738 7.61426055 6.58306178 7.54667225 11.50390625 7.71484375 C17.84671272 8.43945231 21.95942886 11.21511312 26 16 C28.45738872 19.54724757 30.6310907 22.89327209 32 27 C33.98 27.33 35.96 27.66 38 28 C38 20.08 38 12.16 38 4 C36.02 4 34.04 4 32 4 C31.34 6.31 30.68 8.62 30 11 C29.443125 10.60167969 28.88625 10.20335937 28.3125 9.79296875 C18.82512428 3.20629405 11.56854309 1.51141425 0 1 C0 0.67 0 0.34 0 0 Z " fill="#F9FAFA" transform="translate(478,0)"/>
<path d="M0 0 C7.60199744 4.77839839 11.98604944 11.7225287 14.3125 20.3125 C16.9160588 35.26381926 17.35648905 51.92690793 8.4375 64.8125 C4.59082111 69.48277513 0.03602601 72.4100322 -5.6875 74.3125 C-15.31583437 75.23975281 -22.88291696 74.94177491 -30.578125 68.8046875 C-39.58323149 60.66982239 -41.16493618 49.89125612 -41.875 38.234375 C-42.12053679 26.50999311 -40.9470126 14.26894803 -32.79296875 5.20703125 C-24.53922402 -2.44701501 -10.49437186 -4.95623298 0 0 Z " fill="#FCFCFC" transform="translate(193.6875,10.6875)"/>
<path d="M0 0 C24.09 0 48.18 0 73 0 C74.125 6.75 74.125 6.75 74.09765625 10.0859375 C74.09282227 11.13974609 74.09282227 11.13974609 74.08789062 12.21484375 C74.07532227 13.28412109 74.07532227 13.28412109 74.0625 14.375 C74.05798828 15.11105469 74.05347656 15.84710938 74.04882812 16.60546875 C74.03715142 18.40368158 74.01922011 20.20185197 74 22 C72.02 22 70.04 22 68 22 C67.65388672 20.98679687 67.65388672 20.98679687 67.30078125 19.953125 C64.71442594 12.81014868 64.71442594 12.81014868 59 8 C55.7865999 6.98439507 52.71724637 6.80862088 49.359375 6.68359375 C48.39483398 6.64548584 47.43029297 6.60737793 46.43652344 6.56811523 C45.2199707 6.52501221 44.00341797 6.48190918 42.75 6.4375 C38.8725 6.293125 34.995 6.14875 31 6 C31 16.56 31 27.12 31 38 C44.50267364 38.07093541 44.50267364 38.07093541 50 35 C50.90609992 33.06018382 50.90609992 33.06018382 51.25 30.875 C51.4975 29.59625 51.745 28.3175 52 27 C53.98 27 55.96 27 58 27 C58 36.57 58 46.14 58 56 C56.02 56 54.04 56 52 56 C51.81824219 55.36191406 51.63648438 54.72382812 51.44921875 54.06640625 C51.07216797 52.82697266 51.07216797 52.82697266 50.6875 51.5625 C50.44386719 50.73878906 50.20023437 49.91507813 49.94921875 49.06640625 C49.63597656 48.38449219 49.32273437 47.70257813 49 47 C45.43913342 45.81304447 42.02668976 45.64904582 38.3125 45.4375 C37.61060547 45.39431641 36.90871094 45.35113281 36.18554688 45.30664062 C34.45724794 45.2008264 32.7286489 45.09993419 31 45 C31.06910558 49.03904921 31.15718016 53.07720578 31.26245117 57.11547852 C31.29559806 58.48775958 31.32366171 59.86017362 31.34643555 61.23266602 C31.38016766 63.21137766 31.4340149 65.18971376 31.48828125 67.16796875 C31.51446533 68.35672607 31.54064941 69.5454834 31.56762695 70.77026367 C32.044759 74.33434037 32.66736547 76.26123572 35 79 C37.47583844 79.7513039 37.47583844 79.7513039 40.296875 79.62890625 C41.85921875 79.63180664 41.85921875 79.63180664 43.453125 79.63476562 C44.54109375 79.61091797 45.6290625 79.58707031 46.75 79.5625 C48.35875 79.57893555 48.35875 79.57893555 50 79.59570312 C56.52530167 79.53543248 60.74910693 78.96812456 66 75 C70.201091 70.42398326 71.82532967 64.98013984 73 59 C74.98 59 76.96 59 79 59 C79 68.57 79 78.14 79 88 C52.93 88 26.86 88 0 88 C0 86.02 0 84.04 0 82 C5.445 81.01 5.445 81.01 11 80 C11.81280979 75.93595105 12.15128234 72.62416241 12.20874023 68.52905273 C12.22803085 67.24099228 12.24732147 65.95293182 12.26719666 64.62583923 C12.28199791 63.22843433 12.29577226 61.83101822 12.30859375 60.43359375 C12.31516558 59.72605516 12.3217374 59.01851658 12.32850838 58.28953743 C12.36099397 54.550223 12.38548075 50.81093595 12.4050293 47.0715332 C12.42289348 43.97996901 12.4578073 40.88930824 12.50756836 37.7980957 C12.56769661 34.05748553 12.59849144 30.31771719 12.60820198 26.5766468 C12.61676243 25.15360755 12.63559581 23.73059122 12.6649456 22.3078289 C12.70378431 20.31942071 12.70131587 18.33033556 12.69702148 16.34155273 C12.70732895 15.21079819 12.71763641 14.08004364 12.72825623 12.9150238 C12.23677337 9.72462128 12.23677337 9.72462128 9.16737366 7.65052795 C5.99975167 5.99987059 3.53530948 5.33669614 0 5 C0 3.35 0 1.7 0 0 Z " fill="#030303" transform="translate(374,3)"/>
<path d="M0 0 C1.64068315 1.15871184 3.23462755 2.38317998 4.81640625 3.62109375 C5.47640625 1.64109375 6.13640625 -0.33890625 6.81640625 -2.37890625 C8.79640625 -2.37890625 10.77640625 -2.37890625 12.81640625 -2.37890625 C12.81640625 5.54109375 12.81640625 13.46109375 12.81640625 21.62109375 C10.83640625 21.62109375 8.85640625 21.62109375 6.81640625 21.62109375 C6.44128906 20.88503906 6.06617188 20.14898438 5.6796875 19.390625 C2.18398864 12.72502289 -0.66909823 7.61953238 -7.37109375 3.80859375 C-13.13419856 2.01352832 -18.53419433 1.51717733 -24.18359375 3.87109375 C-27.27564929 6.57664234 -28.02939233 8.43888289 -28.55859375 12.49609375 C-28.05433268 16.69826934 -26.98637961 18.41790991 -24.18359375 21.62109375 C-19.73410294 25.02252463 -14.74190731 27.39300279 -9.65625 29.68359375 C-0.1645154 33.96477136 7.75705923 37.74546249 14.81640625 45.62109375 C15.68265625 46.52859375 16.54890625 47.43609375 17.44140625 48.37109375 C20.24641658 55.00111818 19.92750332 62.76696209 17.25390625 69.43359375 C13.43811876 76.66630592 8.72117188 82.31594463 0.8125 84.98828125 C-9.59014143 87.18544932 -18.27772171 86.56412816 -27.6328125 81.32421875 C-30.27815067 79.55795927 -32.73546286 77.65017521 -35.18359375 75.62109375 C-36.17359375 77.93109375 -37.16359375 80.24109375 -38.18359375 82.62109375 C-39.83359375 82.62109375 -41.48359375 82.62109375 -43.18359375 82.62109375 C-43.18359375 72.72109375 -43.18359375 62.82109375 -43.18359375 52.62109375 C-41.20359375 52.62109375 -39.22359375 52.62109375 -37.18359375 52.62109375 C-36.74660156 53.88953125 -36.74660156 53.88953125 -36.30078125 55.18359375 C-33.21571588 63.72088158 -29.91235543 72.68658066 -21.3046875 77 C-15.45048994 78.71421255 -9.34927987 78.34298912 -3.62109375 76.43359375 C-0.78784354 74.32681795 0.47730012 72.8944643 1.81640625 69.62109375 C2.33874836 65.51697718 2.18838726 63.31913218 0.234375 59.65234375 C-2.53037555 56.18635598 -5.40215302 54.45403522 -9.30859375 52.55859375 C-9.97584473 52.21771729 -10.6430957 51.87684082 -11.33056641 51.52563477 C-14.22460537 50.05419007 -17.14238786 48.64069439 -20.07421875 47.24609375 C-28.86022906 43.04649134 -37.91924703 37.40445254 -42.28515625 28.33203125 C-44.21582687 22.5064425 -44.24313264 15.81390067 -42.30859375 9.984375 C-38.84096849 3.26585105 -33.96544454 -1.55129643 -26.87109375 -4.25390625 C-17.06464571 -7.02962968 -8.57940776 -5.41776555 0 0 Z " fill="#030303" transform="translate(503.18359375,6.37890625)"/>
<path d="M0 0 C14.85 0 29.7 0 45 0 C45 2.31 45 4.62 45 7 C41.37 7.33 37.74 7.66 34 8 C35.30376719 16.09234811 37.83799244 23.01218566 41.125 30.5 C41.61274902 31.63042725 42.10049805 32.76085449 42.60302734 33.92553711 C44.05800164 37.28846738 45.52705715 40.6449073 47 44 C47.63421875 45.4543042 47.63421875 45.4543042 48.28125 46.93798828 C51.33059128 55.514689 51.33059128 55.514689 56 63 C56.32685791 62.23558594 56.65371582 61.47117188 56.99047852 60.68359375 C57.96417513 58.40712634 58.9383362 56.13085755 59.9128418 53.85473633 C61.01638452 51.27722087 62.11782983 48.69882215 63.21801758 46.11987305 C67.86742856 35.23570264 67.86742856 35.23570264 70.3203125 29.89453125 C73.38326288 23.21506682 75.86721534 17.43594109 76 10 C73.09907498 8.06604999 72.10325263 7.69868059 68.8125 7.375 C67.554375 7.25125 66.29625 7.1275 65 7 C65 4.69 65 2.38 65 0 C75.89 0 86.78 0 98 0 C98 2.31 98 4.62 98 7 C96.948125 7.04125 95.89625 7.0825 94.8125 7.125 C90.14949368 8.19519817 88.53853125 10.17487714 86 14 C84.27909111 17.18379936 82.82088658 20.46105286 81.375 23.77734375 C80.94896484 24.73470932 80.52292969 25.69207489 80.08398438 26.67845154 C78.70960047 29.78008354 77.35232166 32.8886898 76 36 C75.54786133 37.03844055 75.09572266 38.0768811 74.62988281 39.14678955 C71.38954047 46.60577511 68.19119856 54.08238914 65 61.5625 C64.05099468 63.78069028 63.10177675 65.99878962 62.15234375 68.21679688 C61.24720505 70.33325175 60.34224993 72.44978515 59.4375 74.56640625 C59.01984375 75.54339981 58.6021875 76.52039337 58.171875 77.5269928 C57.58986328 78.89143776 57.58986328 78.89143776 56.99609375 80.28344727 C56.65763428 81.07646744 56.3191748 81.86948761 55.97045898 82.6865387 C54.95232211 85.11365855 53.97094494 87.55366225 53 90 C50.69 90 48.38 90 46 90 C45.73406036 89.38708603 45.46812073 88.77417206 45.19412231 88.14268494 C42.37040252 81.63487385 39.54656126 75.12711548 36.72265625 68.61938477 C35.67541681 66.20599019 34.6282244 63.79257522 33.58105469 61.37915039 C33.07735352 60.21826904 32.57365234 59.0573877 32.0546875 57.86132812 C31.55128845 56.7010611 31.0478894 55.54079407 30.52923584 54.34536743 C29.51461655 52.00757502 28.49952016 49.66998961 27.48394775 47.33261108 C25.01872779 41.65815348 22.55972744 35.98120426 20.11621094 30.29736328 C19.66245087 29.2450502 19.2086908 28.19273712 18.74118042 27.10853577 C17.89206443 25.13893244 17.04563478 23.16816792 16.2024231 21.19602966 C13.32696135 13.26312127 13.32696135 13.26312127 7.51953125 7.85546875 C6.62621094 7.63503906 5.73289063 7.41460938 4.8125 7.1875 C3.91144531 6.95417969 3.01039063 6.72085937 2.08203125 6.48046875 C1.39496094 6.32191406 0.70789063 6.16335937 0 6 C0 4.02 0 2.04 0 0 Z " fill="#080808" transform="translate(221,2)"/>
<path d="M0 0 C14.85 0 29.7 0 45 0 C45 1.65 45 3.3 45 5 C44.07767578 5.16435547 44.07767578 5.16435547 43.13671875 5.33203125 C41.92435547 5.56986328 41.92435547 5.56986328 40.6875 5.8125 C39.48673828 6.03873047 39.48673828 6.03873047 38.26171875 6.26953125 C35.58591065 7.1337387 34.67583411 7.74424358 33 10 C32.53534857 13.02778521 32.53534857 13.02778521 32.59594727 16.53515625 C32.58565239 17.52344925 32.58565239 17.52344925 32.57514954 18.53170776 C32.55685283 20.70885791 32.56072232 22.8852895 32.56640625 25.0625 C32.56184613 26.57560461 32.55654107 28.08870714 32.55052185 29.60180664 C32.54158541 32.77270931 32.54402015 35.94336018 32.55395508 39.11425781 C32.56545195 43.18008081 32.54522605 47.24503624 32.51603794 51.31074524 C32.49770327 54.43515553 32.49796274 57.5593568 32.50367546 60.68380737 C32.50382898 62.18294493 32.49775939 63.68209638 32.48538399 65.18118286 C32.47052416 67.27629251 32.48111053 69.36978514 32.49829102 71.46484375 C32.49845718 72.657146 32.49862335 73.84944824 32.49879456 75.07788086 C32.72383911 78.09093441 32.72383911 78.09093441 34.89756775 79.87646484 C38.2442444 81.66492146 41.23999519 81.68666627 45 82 C45 83.98 45 85.96 45 88 C30.15 88 15.3 88 0 88 C0 86.02 0 84.04 0 82 C0.69867188 81.87882812 1.39734375 81.75765625 2.1171875 81.6328125 C3.02726562 81.46523437 3.93734375 81.29765625 4.875 81.125 C5.77992188 80.96257812 6.68484375 80.80015625 7.6171875 80.6328125 C10.16505988 80.16955297 10.16505988 80.16955297 12 78 C12.30083387 75.0588268 12.30083387 75.0588268 12.24291992 71.5625 C12.24481827 70.90217773 12.24671661 70.24185547 12.24867249 69.56152344 C12.25238353 67.37422898 12.24167155 65.18726505 12.23046875 63 C12.22927699 61.48307331 12.22882378 59.96614588 12.2290802 58.44921875 C12.22751476 55.26818226 12.21922066 52.08725821 12.20581055 48.90625 C12.18882061 44.82378103 12.18499618 40.74143573 12.18575573 36.65893555 C12.18548411 33.5260296 12.18000414 30.39315083 12.17275429 27.26025391 C12.16956669 25.75472214 12.1676 24.2491873 12.16686058 22.74365234 C12.16469797 20.64154797 12.15595551 18.53957603 12.14526367 16.4375 C12.14145187 15.23996094 12.13764008 14.04242188 12.13371277 12.80859375 C12.19185478 10.04689829 12.19185478 10.04689829 11 8 C7.57077253 5.75781281 4.00948613 5.46263302 0 5 C0 3.35 0 1.7 0 0 Z " fill="#060606" transform="translate(323,3)"/>
<path d="M0 0 C2.54117446 2.47928893 2.98848501 3.88948261 3.36108398 7.46557617 C3.36210577 8.8456509 3.343375 10.225832 3.30859375 11.60546875 C3.2985582 12.35080368 3.28852264 13.09613861 3.27818298 13.86405945 C3.10529299 21.62963014 2.29702237 29.31273173 1.34594727 37.01635742 C1.05718971 39.35551746 0.78238009 41.69601752 0.50976562 44.03710938 C0.33150552 45.54175885 0.15249839 47.04632005 -0.02734375 48.55078125 C-0.10967758 49.24238846 -0.19201141 49.93399567 -0.27684021 50.64656067 C-0.67086288 53.82579717 -1.11741585 56.91659734 -2 60 C-3.98 60 -5.96 60 -8 60 C-9.76891317 51.28875734 -10.8625921 42.53595179 -11.85986328 33.7109375 C-12.12538566 31.37160222 -12.40026977 29.03348989 -12.67578125 26.6953125 C-15.00136703 6.60218725 -15.00136703 6.60218725 -12.125 2 C-8.40480823 -1.50135696 -4.78724878 -1.56415059 0 0 Z " fill="#4CC5F2" transform="translate(539,1)"/>
<path d="M0 0 C2.87029869 1.79393668 4.49131638 2.98263276 6 6 C6.07116382 8.37402501 6.08409085 10.75000677 6.0625 13.125 C6.05347656 14.40632813 6.04445313 15.68765625 6.03515625 17.0078125 C6.02355469 17.99523437 6.01195312 18.98265625 6 20 C-6.9796748 20.56707317 -6.9796748 20.56707317 -12 17 C-14.68990329 12.96514506 -14.77993882 9.73771348 -14 5 C-10.48991881 -0.54819285 -6.12196123 -1.23104655 0 0 Z " fill="#4CC5F2" transform="translate(538,73)"/>
<path d="M0 0 C2.64 0 5.28 0 8 0 C7.67 5.28 7.34 10.56 7 16 C6.67 16 6.34 16 6 16 C5.95101562 15.24074219 5.90203125 14.48148438 5.8515625 13.69921875 C5.77679687 12.70535156 5.70203125 11.71148437 5.625 10.6875 C5.55539062 9.70136719 5.48578125 8.71523437 5.4140625 7.69921875 C5.16134528 4.78471567 5.16134528 4.78471567 3 2 C2.01 1.34 1.02 0.68 0 0 Z " fill="#E5F6FC" transform="translate(536,0)"/>
<path d="M0 0 C0.33 0 0.66 0 1 0 C1 2.31 1 4.62 1 7 C-1.31 7 -3.62 7 -6 7 C-5.02433888 5.83040013 -4.044375 4.66438823 -3.0625 3.5 C-2.51722656 2.8503125 -1.97195313 2.200625 -1.41015625 1.53125 C-0.71212891 0.77328125 -0.71212891 0.77328125 0 0 Z " fill="#F3FAFE" transform="translate(543,86)"/>
</svg>
